<svg width="30" height="23" viewBox="0 0 30 23" fill="none" xmlns="http://www.w3.org/2000/svg">
<path d="M11.5523 1.58711L14.0298 1.35957C15.4987 1.32656 16.9606 1.40909 18.4154 1.60008C18.522 1.57296 19.0245 0.0273843 19.3033 0.00380572C19.4872 -0.0115204 20.1537 0.161782 20.388 0.211297C22.1205 0.579123 23.8143 1.18981 25.4202 1.92546C28.8512 6.90526 30.5872 13.1347 29.8211 19.1968C27.5428 20.8685 25.002 22.1936 22.2891 23L22.2142 22.9847L20.6785 20.4288L23.1126 19.1649C23.1888 19.0883 23.1243 19.0695 23.0786 19.0199C23.033 18.9704 22.623 18.6615 22.5843 18.6568C22.473 18.6462 20.8156 19.3689 20.4911 19.4738C16.1441 20.8767 11.5512 20.5643 7.41504 18.6568L6.88441 19.0447L6.91369 19.1968L9.32086 20.3757C9.31969 20.4936 8.69652 21.5664 8.58173 21.7539C8.41071 22.0321 8.05578 22.6357 7.85313 22.8479C7.79456 22.9104 7.7524 22.9906 7.65166 22.9929C4.96335 22.17 2.43904 20.8638 0.177122 19.198C-0.585442 13.1324 1.15522 6.86871 4.6096 1.9007C6.52714 1.01415 8.55947 0.390495 10.6375 0.00262679C10.7429 -0.0103414 10.7745 0.0250265 10.8319 0.101657C11.1295 0.487167 11.3391 1.14147 11.5512 1.58711H11.5523ZM9.65353 9.62976C6.05507 10.1261 6.92306 16.5984 10.7089 15.5845C13.8365 14.7463 13.1056 9.15348 9.65353 9.62976ZM19.6102 9.62976C16.2331 10.0954 16.7263 16.0644 20.292 15.68C23.7288 15.3087 23.3176 9.11811 19.6102 9.62976Z" fill="#00B2FF"/>
</svg>
