<svg width="712" height="399" viewBox="0 0 712 399" fill="none" xmlns="http://www.w3.org/2000/svg">
<g clip-path="url(#clip0_4030_2723)">
<path d="M711.499 0.927019L634.221 115.558L711.499 102.254L711.499 0.927019Z" fill="#061825"/>
<path d="M634.221 115.558L711.498 232.222L711.499 102.253L634.221 115.558Z" fill="#88AFC6"/>
<path d="M634.221 115.558L545.958 102.253L711.499 232.222L634.221 115.558Z" fill="#0E4968"/>
<path d="M545.958 102.253L595.737 232.222L711.499 232.222L545.958 102.253Z" fill="#041F30"/>
<path d="M595.737 232.222L663.642 330.475L711.499 232.222L595.737 232.222Z" fill="#88AFC6"/>
<path d="M663.643 330.475L711.499 393.938L711.499 232.222L663.643 330.475Z" fill="#FCFDFF"/>
<path d="M663.642 330.475L595.737 430.777L711.499 393.938L663.642 330.475Z" fill="#E8F1FC"/>
<path d="M595.737 430.777L711.499 490.142L711.499 393.938L595.737 430.777Z" fill="#88AFC6"/>
<path d="M595.737 430.777L545.958 299.784L663.642 330.475L595.737 430.777Z" fill="#2D6486"/>
<path d="M545.958 299.784L595.737 232.222L663.642 330.475L545.958 299.784Z" fill="#093653"/>
<path d="M509.74 404.169L545.958 299.784L595.737 430.777L509.74 404.169Z" fill="#093653"/>
<path d="M545.958 299.784L459.944 342.755L509.74 404.169L545.958 299.784Z" fill="#0E4968"/>
<path d="M595.737 232.222L496.163 281.356L545.959 299.784L595.737 232.222Z" fill="#0E4968"/>
<path d="M496.334 281.418L460.116 342.832L546.13 299.846L496.334 281.418Z" fill="#041F30"/>
<path d="M459.944 342.755L355.837 342.755L509.74 404.168L459.944 342.755Z" fill="#041F30"/>
<path d="M355.837 342.755L392.485 442.032L509.74 404.168L355.837 342.755Z" fill="#093652"/>
<path d="M355.837 342.755L215.513 414.399L392.485 442.032L355.837 342.755Z" fill="#0E4968"/>
</g>
<defs>
<clipPath id="clip0_4030_2723">
<rect width="589.951" height="710.756" fill="white" transform="matrix(-2.23145e-07 1 1 2.14405e-07 0.743164 0.926758)"/>
</clipPath>
</defs>
</svg>
