<svg width="197" height="548" viewBox="0 0 197 548" fill="none" xmlns="http://www.w3.org/2000/svg">
<g clip-path="url(#clip0_4030_1771)">
<path d="M117.007 64.9139L197 117.438L197 6.99322e-06L117.007 64.9139Z" fill="#041F30"/>
<path d="M69.8862 143.595L197 117.438L117.007 64.9139L69.8862 143.595Z" fill="#195678"/>
<path d="M69.8862 143.595L102.389 248.199L197 117.438L69.8862 143.595Z" fill="#88AFC6"/>
<path d="M102.389 248.199L197 211.274L197 117.438L102.389 248.199Z" fill="#F7F9FC"/>
<path d="M69.8863 143.595L48.7603 202.045L102.389 248.199L69.8863 143.595Z" fill="#041F30"/>
<path d="M6.18595e-06 235.89L0 306.649L48.7601 202.045L6.18595e-06 235.89Z" fill="#041F30"/>
<path d="M48.7603 202.045L102.389 248.199L78.8224 281.741L48.7603 202.045Z" fill="#2D6486"/>
<path d="M102.389 248.199L78.8223 281.741L197 211.274L102.389 248.199Z" fill="#B3CFE1"/>
<path d="M0 306.649L78.8222 281.741L48.7601 202.045L0 306.649Z" fill="#093652"/>
<path d="M78.8223 281.741L117.007 349.781L197 292.801L78.8223 281.741Z" fill="#186E91"/>
<path d="M197 292.801L78.8223 281.741L197 211.274L197 292.801Z" fill="#E8F1FC"/>
<path d="M8.33802e-06 306.65L56.8826 402.025L78.8222 281.741L8.33802e-06 306.65Z" fill="#0E4968"/>
<path d="M56.8828 402.025L117.007 349.782L78.8224 281.741L56.8828 402.025Z" fill="#195678"/>
<path d="M117.007 349.782L197 402.025L197 292.801L117.007 349.782Z" fill="#A6C6DB"/>
<path d="M117.007 349.782L123.515 455.039L197 402.025L117.007 349.782Z" fill="#F7F9FC"/>
<path d="M123.515 455.039L197 498.941L197 402.025L123.515 455.039Z" fill="#5C99BB"/>
<path d="M123.515 455.039L56.8828 402.025L117.007 349.782L123.515 455.039Z" fill="#ADCCDD"/>
<path d="M123.515 455.039L90.1987 517.795L197 498.941L123.515 455.039Z" fill="#ADCCDD"/>
<path d="M90.1989 517.795L56.8828 402.025L123.515 455.039L90.1989 517.795Z" fill="#0E4968"/>
<path d="M90.1987 517.795L197 548L197 498.941L90.1987 517.795Z" fill="#0A2637"/>
</g>
<defs>
<clipPath id="clip0_4030_1771">
<rect width="197" height="548" fill="white" transform="matrix(1 8.74228e-08 8.74228e-08 -1 0 548)"/>
</clipPath>
</defs>
</svg>
