<svg width="746" height="649" viewBox="0 0 746 649" fill="none" xmlns="http://www.w3.org/2000/svg">
<path d="M-118 649L19.6031 514.592L-118 465.07V649Z" fill="#061825"/>
<path d="M19.6031 514.592L-13.4174 401.391L-118 465.07L19.6031 514.592Z" fill="#0E4968"/>
<path d="M19.603 514.592L151.667 465.07L-13.4175 401.391L19.603 514.592Z" fill="#0B263B"/>
<path d="M151.667 465.07L97.4166 382.534L-13.4175 401.391L151.667 465.07Z" fill="#041F30"/>
<path d="M-13.4175 401.391L-54.4526 332.05L97.4166 382.534L-13.4175 401.391Z" fill="#07212F"/>
<path d="M-54.4526 332.05L54.9744 271.702L97.4166 382.534L-54.4526 332.05Z" fill="#093653"/>
<path d="M-54.4526 332.05L-1.19955 218.601L54.9744 271.702L-54.4526 332.05Z" fill="#164F73"/>
<path d="M97.4168 382.534L189.407 314.154L54.9746 271.702L97.4168 382.534Z" fill="#032A41"/>
<path d="M54.9748 271.702L151.667 182.096L-1.19922 218.601L54.9748 271.702Z" fill="#ABC7DB"/>
<path d="M-1.19922 218.601L31.3938 139.662L151.667 182.096L-1.19922 218.601Z" fill="#D0E4EE"/>
<path d="M31.3938 139.662L-65.7085 68.9137L-1.19924 218.601L31.3938 139.662Z" fill="#E8F1FC"/>
<path d="M-65.7087 68.9137L97.4167 0H-118L-65.7087 68.9137Z" fill="#A9C9DD"/>
<path d="M-65.7085 68.9137H97.4169L31.3938 139.662L-65.7085 68.9137Z" fill="#88AFC6"/>
<path d="M97.4169 68.9137V0L-65.7085 68.9137H97.4169Z" fill="#F7F9FC"/>
<path d="M189.407 314.154L307.33 356.589L212.988 226.899L189.407 314.154Z" fill="#0A2032"/>
<path d="M212.988 226.899L151.667 182.096L189.407 314.154L212.988 226.899Z" fill="#245C7F"/>
<path d="M151.667 182.096L54.9746 271.702L189.407 314.154L151.667 182.096Z" fill="#185270"/>
<path d="M97.4167 68.9137L151.667 182.096L31.3936 139.662L97.4167 68.9137Z" fill="#F7FCFE"/>
<path d="M97.4165 68.9137H224.779L97.4165 0V68.9137Z" fill="#97B9CE"/>
<path d="M224.779 68.9137L151.667 182.096L97.4165 68.9137H224.779Z" fill="#1E92B5"/>
<path d="M224.779 68.9137L212.988 226.899L151.667 182.096L224.779 68.9137Z" fill="#1C4666"/>
<path d="M307.33 356.589V193.884L212.988 226.899L307.33 356.589Z" fill="#031721"/>
<path d="M212.988 226.899L224.779 68.9137L307.33 193.884L212.988 226.899Z" fill="#102B41"/>
<path d="M224.779 68.9137L307.33 0H97.4165L224.779 68.9137Z" fill="#FCFDFF"/>
<path d="M307.33 193.884L371.002 52.1394L224.779 68.9137L307.33 193.884Z" fill="#195678"/>
<path d="M307.33 193.884L420.533 139.662L371.002 52.1394L307.33 193.884Z" fill="#0F334B"/>
<path d="M371.002 52.1394L307.33 0L224.779 68.9137L371.002 52.1394Z" fill="#5C99BB"/>
<path d="M420.533 139.662L537.119 153.8L371.002 52.1394L420.533 139.662Z" fill="#0D2F46"/>
<path d="M537.12 153.801L597.426 52.1394L512.506 0L537.12 153.801Z" fill="#ADCCDD"/>
<path d="M537.119 153.801L512.506 0L371.002 52.1394L537.119 153.801Z" fill="#1B587E"/>
<path d="M371.002 52.1394L307.33 0H512.506L371.002 52.1394Z" fill="#A6C6DB"/>
<path d="M597.426 52.1394L717.699 125.505L672.888 34.4569L597.426 52.1394Z" fill="#0B2E45"/>
<path d="M672.888 34.4569L512.506 0L597.426 52.1394L672.888 34.4569Z" fill="white"/>
<path d="M672.888 34.4569L746 0H512.506L672.888 34.4569Z" fill="#A1C0D7"/>
<path d="M717.699 125.505L746 0L672.888 34.4569L717.699 125.505Z" fill="#0A2637"/>
</svg>
