<svg width="155" height="447" viewBox="0 0 155 447" fill="none" xmlns="http://www.w3.org/2000/svg">
<g clip-path="url(#clip0_4030_1792)">
<path d="M62.939 394.05L0.000190735 351.207L0.000207484 447L62.939 394.05Z" fill="#041F30"/>
<path d="M100.014 329.871L0.000179207 351.207L62.939 394.05L100.014 329.871Z" fill="#195678"/>
<path d="M100.014 329.871L74.4406 244.546L0.000194125 351.207L100.014 329.871Z" fill="#88AFC6"/>
<path d="M74.4404 244.546L5.86721e-05 274.665L7.2055e-05 351.207L74.4404 244.546Z" fill="#F7F9FC"/>
<path d="M100.014 329.871L116.636 282.193L74.4406 244.546L100.014 329.871Z" fill="#041F30"/>
<path d="M155 254.586L155 196.868L116.635 282.193L155 254.586Z" fill="#041F30"/>
<path d="M116.636 282.193L74.4406 244.546L92.9828 217.186L116.636 282.193Z" fill="#2D6486"/>
<path d="M74.4402 244.546L92.9824 217.186L-0.000165426 274.666L74.4402 244.546Z" fill="#B3CFE1"/>
<path d="M155 196.868L92.9825 217.186L116.635 282.193L155 196.868Z" fill="#093652"/>
<path d="M92.9824 217.186L62.9386 161.686L-0.000167349 208.164L92.9824 217.186Z" fill="#186E91"/>
<path d="M-0.000175476 208.164L92.9824 217.186L-0.000163849 274.665L-0.000175476 208.164Z" fill="#E8F1FC"/>
<path d="M155 196.868L110.245 119.071L92.9825 217.186L155 196.868Z" fill="#0E4968"/>
<path d="M110.245 119.071L62.9387 161.685L92.9825 217.186L110.245 119.071Z" fill="#195678"/>
<path d="M62.9385 161.685L-0.000297546 119.071L-0.000281969 208.164L62.9385 161.685Z" fill="#A6C6DB"/>
<path d="M62.9385 161.686L57.818 75.8276L-0.000289986 119.071L62.9385 161.686Z" fill="#F7F9FC"/>
<path d="M57.8184 75.8275L2.28882e-05 40.0169L3.67104e-05 119.071L57.8184 75.8275Z" fill="#5C99BB"/>
<path d="M57.8183 75.8276L110.245 119.071L62.9387 161.686L57.8183 75.8276Z" fill="#ADCCDD"/>
<path d="M57.8181 75.8275L84.0312 24.6382L-0.00026434 40.0169L57.8181 75.8275Z" fill="#ADCCDD"/>
<path d="M84.0315 24.6382L110.245 119.071L57.8183 75.8275L84.0315 24.6382Z" fill="#0E4968"/>
<path d="M84.0313 24.6382L-0.000267029 1.46925e-05L-0.000260032 40.0169L84.0313 24.6382Z" fill="#0A2637"/>
</g>
<defs>
<clipPath id="clip0_4030_1792">
<rect width="155" height="447" fill="white" transform="matrix(-1 1.74846e-07 1.74846e-07 1 155 0)"/>
</clipPath>
</defs>
</svg>
