<svg width="37" height="26" viewBox="0 0 37 26" fill="none" xmlns="http://www.w3.org/2000/svg">
<path d="M16.6523 21.6756C17.2507 21.6765 17.7354 22.1501 17.7345 22.7342C17.7336 23.3179 17.248 23.7906 16.649 23.7897C16.0505 23.7888 15.5658 23.3152 15.5668 22.7311C15.5677 22.1474 16.0533 21.6747 16.6523 21.6756ZM33.6478 15.1395C33.0493 15.1395 32.5641 14.6655 32.5646 14.0818C32.5646 13.4981 33.0507 13.0249 33.6492 13.0254C34.2477 13.0258 34.7328 13.4994 34.7324 14.0831C34.7324 14.6668 34.2463 15.14 33.6478 15.1395ZM33.6478 10.8151C31.7973 10.8169 30.2979 12.2793 30.296 14.084C30.296 14.4345 30.3562 14.7832 30.4732 15.1229L19.4023 20.8709C18.7793 19.9886 17.7507 19.4617 16.6518 19.4622C15.3739 19.4622 14.2098 20.1762 13.6455 21.2904L3.70036 16.1752C2.6491 15.6371 1.86285 13.9501 1.9461 12.4133C1.98911 11.6117 2.27308 10.9892 2.70599 10.7488C2.98025 10.5986 3.31048 10.6103 3.66198 10.7894L3.72673 10.8241C6.36298 12.1774 14.9872 16.6082 15.3508 16.7724C15.9104 17.0264 16.2217 17.1288 17.1777 16.6867L35.0057 7.64408C35.2679 7.548 35.5732 7.30262 35.5732 6.93138C35.5732 6.41716 35.0274 6.21418 35.026 6.21418C34.0118 5.74055 32.4532 5.02921 30.9329 4.33456C27.6829 2.85054 24 1.16939 22.3826 0.342576C20.9859 -0.370117 19.862 0.231161 19.6617 0.351598L19.2732 0.539695C11.9935 4.05039 2.24996 8.75687 1.69496 9.08615C0.703817 9.67525 0.0886906 10.8498 0.00867785 12.3068C-0.11481 14.6176 1.09232 17.0282 2.82069 17.9105L13.338 23.2002C13.5775 24.8065 14.9886 25.9982 16.6527 26C18.4819 25.9968 19.9716 24.566 20.0026 22.7825L31.5869 16.6583C32.1729 17.1062 32.9018 17.3516 33.6483 17.3516C35.4987 17.3498 36.9981 15.8874 37 14.0827C36.9981 12.2779 35.4987 10.8156 33.6483 10.8138" fill="#00B2FF"/>
</svg>
