<svg width="29" height="29" viewBox="0 0 29 29" fill="none" xmlns="http://www.w3.org/2000/svg">
<path fill-rule="evenodd" clip-rule="evenodd" d="M14.5104 0C6.48735 0 0 6.64583 0 14.8685C0 21.4419 4.15559 27.0032 9.92113 28.9728C10.6429 29.1208 10.9073 28.6526 10.9073 28.2599C10.9073 27.9155 10.8835 26.7344 10.8835 25.5019C6.84677 26.387 6.00615 23.7286 6.00615 23.7286C5.3586 22.0068 4.39619 21.5627 4.39619 21.5627C3.07436 20.6534 4.49124 20.6534 4.49124 20.6534C5.95565 20.7531 6.72498 22.179 6.72498 22.179C8.02305 24.4446 10.1112 23.8042 10.9548 23.4084C11.0736 22.4478 11.4598 21.7832 11.8667 21.4147C8.64683 21.0703 5.26058 19.7895 5.26058 14.0801C5.26058 12.4549 5.83683 11.1257 6.74874 10.0926C6.6032 9.72406 6.1012 8.19854 6.89429 6.15344C6.89429 6.15344 8.1181 5.76073 10.8835 7.67896C12.0658 7.35271 13.2866 7.18656 14.5104 7.18656C15.7342 7.18656 16.9847 7.35875 18.1373 7.67896C20.8997 5.75771 22.1265 6.15344 22.1265 6.15344C22.9196 8.19552 22.4146 9.72406 22.272 10.0926C23.2077 11.1257 23.7602 12.4549 23.7602 14.0801C23.7602 19.7925 20.374 21.0461 17.1303 21.4147C17.659 21.8829 18.1165 22.768 18.1165 24.1727C18.1165 26.1665 18.0927 27.7675 18.0927 28.2599C18.0927 28.6526 18.3571 29.1208 19.0789 28.9728C24.8444 27.0032 29 21.4419 29 14.8685C29.0238 6.64583 22.5126 0 14.5134 0L14.5104 0Z" fill="#00B2FF"/>
</svg>
