<svg width="65" height="65" viewBox="0 0 65 65" fill="none" xmlns="http://www.w3.org/2000/svg">
<path d="M32.5004 63.5942C49.6733 63.5942 63.5946 49.6728 63.5946 32.5C63.5946 15.3272 49.6733 1.40582 32.5004 1.40582C15.3276 1.40582 1.40625 15.3272 1.40625 32.5C1.40625 49.6728 15.3276 63.5942 32.5004 63.5942Z" fill="#032A41"/>
<path fill-rule="evenodd" clip-rule="evenodd" d="M32.5 2.81166C16.1036 2.81166 2.81166 16.1036 2.81166 32.5C2.81166 48.8964 16.1036 62.1883 32.5 62.1883C48.8964 62.1883 62.1883 48.8964 62.1883 32.5C62.1883 16.1036 48.8964 2.81166 32.5 2.81166ZM0 32.5C0 14.5507 14.5507 0 32.5 0C50.4492 0 65 14.5507 65 32.5C65 50.4493 50.4493 65 32.5 65C14.5507 65 0 50.4492 0 32.5Z" fill="white"/>
<path d="M32.5317 20.0293L43.5713 26.3143L54.6136 20.0302L32.5317 20.0293Z" fill="#216CA7"/>
<path d="M32.532 20.0293L43.5716 26.3143L32.5273 32.5721L32.532 20.0293Z" fill="#4F9AC6"/>
<path d="M32.5327 20.0293L32.528 32.5721L21.4932 26.2927L32.5327 20.0293Z" fill="#90CDE3"/>
<path d="M32.532 20.0293L21.4925 26.2927L10.3687 19.9834L32.532 20.0293Z" fill="#DCF0EE"/>
<path d="M10.3687 19.9834L32.532 20.0293L21.4091 13.7209L10.3687 19.9834Z" fill="#90CDE3"/>
<path d="M21.4092 13.7209L32.4496 7.45276L32.5302 20.0359L21.4092 13.7209Z" fill="#BDE4EB"/>
<path d="M32.5312 20.0293L32.4487 7.45276L43.5707 13.7565L32.5312 20.0293Z" fill="#DCF0EE"/>
<path d="M32.5317 20.0293L43.5713 13.7564L54.6136 20.0302L32.5317 20.0293Z" fill="#4F9AC6"/>
<path d="M54.6126 20.0303L43.5928 38.83L43.5703 26.3143L54.6126 20.0303Z" fill="#1E4D81"/>
<path d="M43.5716 26.3143L43.594 38.8299L32.5273 32.5721L43.5716 26.3143Z" fill="#216CA7"/>
<path d="M43.5942 38.8299L54.6441 32.5636L54.6975 45.1289L43.5942 38.8299Z" fill="#1E4D81"/>
<path d="M43.5942 38.83L54.6141 20.0303L54.6441 32.5637L43.5942 38.83Z" fill="#1E3058"/>
<path d="M43.5942 38.8299L54.6975 45.129L43.6955 51.429L43.5942 38.8299Z" fill="#1E3058"/>
<path d="M43.5938 38.8299L43.6951 51.429L32.5337 57.7018L43.5938 38.8299Z" fill="#4F9AC6"/>
<path d="M32.5337 57.7018L43.5939 38.8299L32.5 45.0578L32.5337 57.7018Z" fill="#216CA7"/>
<path d="M32.5 45.0578L32.5272 32.5721L43.5939 38.83L32.5 45.0578Z" fill="#4F9AC6"/>
<path d="M32.5264 32.5721L21.499 38.815L32.4992 45.0578L32.5264 32.5721Z" fill="#90CDE3"/>
<path d="M21.499 38.8149L32.5329 57.7018L32.4992 45.0578L21.499 38.8149Z" fill="#4F9AC6"/>
<path d="M21.499 38.8149L21.394 51.429L32.5329 57.7018L21.499 38.8149Z" fill="#1E4D81"/>
<path d="M21.5001 38.8149L21.3951 51.429L10.3696 45.129L21.5001 38.8149Z" fill="#4F9AC6"/>
<path d="M10.3696 45.129L21.5001 38.8149L10.3837 32.4999L10.3696 45.129Z" fill="#90CDE3"/>
<path d="M10.3836 32.4999L10.3687 19.9834L21.5 38.8149L10.3836 32.4999Z" fill="#BDE4EB"/>
<path d="M10.3687 19.9834L21.5 38.8149L21.4925 26.2927L10.3687 19.9834Z" fill="#90CDE3"/>
<path d="M21.4932 26.2928L21.5007 38.815L32.528 32.5721L21.4932 26.2928Z" fill="#BDE4EB"/>
<path fill-rule="evenodd" clip-rule="evenodd" d="M32.4488 6.80621L55.1744 19.7022L55.26 45.456L32.5332 58.3484L9.80614 45.4564L9.82056 32.5007L9.82056 32.4994L9.80518 19.6562L32.4488 6.80621ZM32.4488 8.09935L10.9306 20.3107L10.9452 32.5006L10.9315 44.8017L32.5332 57.0554L54.1331 44.8022L54.0519 20.3584L32.4488 8.09935Z" fill="white"/>
<path fill-rule="evenodd" clip-rule="evenodd" d="M31.9716 57.7029L31.8872 7.45379L33.0119 7.4519L33.0962 57.701L31.9716 57.7029Z" fill="white"/>
<path fill-rule="evenodd" clip-rule="evenodd" d="M10.6457 19.4944L54.9744 44.64L54.4195 45.6182L10.0908 20.4726L10.6457 19.4944Z" fill="white"/>
<path fill-rule="evenodd" clip-rule="evenodd" d="M10.0918 44.64L54.3361 19.5412L54.891 20.5194L10.6467 45.6182L10.0918 44.64Z" fill="white"/>
<path fill-rule="evenodd" clip-rule="evenodd" d="M54.6129 20.5926L10.3677 20.5457L10.3689 19.4211L54.6141 19.4679L54.6129 20.5926Z" fill="white"/>
<path fill-rule="evenodd" clip-rule="evenodd" d="M55.0991 20.3146L33.0191 57.9862L32.0488 57.4175L54.1288 19.7459L55.0991 20.3146Z" fill="white"/>
<path fill-rule="evenodd" clip-rule="evenodd" d="M32.0481 57.9868L9.88281 20.2684L10.8524 19.6985L33.0177 57.417L32.0481 57.9868Z" fill="white"/>
</svg>
