<svg id="Ebene_2" data-name="Ebene 2" xmlns="http://www.w3.org/2000/svg" xmlns:xlink="http://www.w3.org/1999/xlink" viewBox="0 0 507.36 487.1">
  <defs>
    <style>
      .cls-1 {
        fill: url(#Unbenannter_Verlauf_9-2);
      }

      .cls-1, .cls-2 {
        opacity: .2;
      }

      .cls-3 {
        fill: #1fb1f5;
      }

      .cls-4 {
        fill: rgba(16, 47, 178, .74);
        opacity: .4;
      }

      .cls-5 {
        fill: #fff;
      }

      .cls-2 {
        fill: url(#Unbenannter_Verlauf_9);
      }

      .cls-6 {
        fill: #1c2d8e;
        opacity: .5;
      }

      .cls-7 {
        fill: #0093ff;
      }
    </style>
    <linearGradient id="Unbenannter_Verlauf_9" data-name="Unbenannter Verlauf 9" x1="326.85" y1="501.35" x2="460.51" y2="134.13" gradientUnits="userSpaceOnUse">
      <stop offset="0" stop-color="#fff"/>
      <stop offset="1" stop-color="#fff" stop-opacity="0"/>
    </linearGradient>
    <linearGradient id="Unbenannter_Verlauf_9-2" data-name="Unbenannter Verlauf 9" x1="69.64" y1="426.01" x2="177.34" y2="130.13" xlink:href="#Unbenannter_Verlauf_9"/>
  </defs>
  <g id="_3D_Cube_orig" data-name="3D Cube orig">
    <g>
      <polygon class="cls-3" points="16.21 146.41 17.85 403.87 162.73 453.89 199.75 434.61 199.75 56.94 150.85 52.36 16.21 146.41"/>
      <polygon class="cls-7" points="222.14 56.94 260.75 32.56 488.05 139.7 485.49 399.86 251.67 460.65 214.22 438.61 222.14 56.94"/>
      <polygon class="cls-4" points="17.85 403.87 273.29 375.15 485.49 399.86 223.13 468.07 17.85 403.87"/>
      <polygon class="cls-4" points="16.21 146.41 273.29 169.34 488.05 139.7 201.12 20.71 16.21 146.41"/>
      <polygon class="cls-6" points="488.05 139.7 273.29 169.34 273.29 375.15 485.49 399.86 488.05 139.7"/>
      <path class="cls-5" d="M164.97,16.04L16.23,120.47C6.06,127.61,0,139.26,0,151.7v239.92c0,16.27,10.32,30.75,25.7,36.06l158.07,54.58c15.81,5.46,32.84,6.32,49.12,2.48l245.08-57.78c17.23-4.06,29.4-19.44,29.4-37.14v-235.64c0-14.68-8.42-28.06-21.66-34.41L253.94,8.68c-28.81-13.81-62.82-10.99-88.97,7.36ZM49.45,135.02l87.48-61.42c21.4-15.02,50.85.28,50.85,26.43v308.14c0,20.89-20.59,35.56-40.33,28.74l-87.23-30.12c-17.49-6.04-29.22-22.5-29.22-41v-195.27c0-14.13,6.89-27.38,18.45-35.5ZM442.94,403.37l-159.83,37.68c-27.23,6.42-53.33-14.24-53.33-42.22V100.37c0-31.93,33.33-52.92,62.13-39.11l159.83,76.62c15.05,7.21,24.63,22.42,24.63,39.11v184.16c0,20.12-13.84,37.6-33.42,42.22Z"/>
      <polygon class="cls-2" points="492.41 409.16 214.22 468.07 349.5 76.42 488.05 139.7 492.41 409.16"/>
      <polygon class="cls-1" points="18.03 413.44 212.08 475.49 94.59 86.07 12.75 141.51 18.03 413.44"/>
    </g>
  </g>
</svg>