<svg width="322" height="324" viewBox="0 0 322 324" fill="none" xmlns="http://www.w3.org/2000/svg">
<path d="M317.416 94.2853L250.718 175.463V62.7691L317.416 94.2853Z" fill="#1E4D81"/>
<path d="M250.718 62.7691V175.463L131.584 4.60318L250.718 62.7691Z" fill="#216CA7"/>
<path d="M250.718 175.463L317.628 183.065L318.006 272.083L250.718 175.463Z" fill="#1E4D81"/>
<path d="M250.718 175.463L317.416 94.2853L317.628 183.065L250.718 175.463Z" fill="#1E3058"/>
<path d="M250.718 175.463L318.006 272.083L250.718 288.807V175.463Z" fill="#1E3058"/>
<path d="M250.718 175.463V288.807L131.631 319.739L250.718 175.463Z" fill="#4F9AC6"/>
<path d="M131.631 319.739L250.718 175.463L131.392 161.945L131.631 319.739Z" fill="#216CA7"/>
<path d="M131.392 161.945L131.584 4.60318L250.718 175.463L131.392 161.945Z" fill="#4F9AC6"/>
<path d="M131.584 4.60318L50.0752 175.476L131.392 161.945L131.584 4.60318Z" fill="#90CDE3"/>
<path d="M50.0752 175.476L131.631 319.739L131.392 161.945L50.0752 175.476Z" fill="#4F9AC6"/>
<path d="M50.0749 175.476L48.4683 288.807L131.631 319.739L50.0749 175.476Z" fill="#1E4D81"/>
<path d="M50.0753 175.476L48.4686 288.807L3.99268 272.083L50.0753 175.476Z" fill="#4F9AC6"/>
<path d="M3.99268 272.083L50.0753 175.476L4.09226 182.62L3.99268 272.083Z" fill="#90CDE3"/>
<path d="M4.09207 182.62L3.98584 93.9534L50.0751 175.476L4.09207 182.62Z" fill="#BDE4EB"/>
<path d="M3.98584 93.9534L50.0751 175.476L48.4684 62.7691L3.98584 93.9534Z" fill="#90CDE3"/>
<path d="M48.4683 62.7691L50.0749 175.476L131.584 4.60318L48.4683 62.7691Z" fill="#BDE4EB"/>
<path fill-rule="evenodd" clip-rule="evenodd" d="M130.661 0L321.391 91.7775L322 275.173L131.408 323.908L0.00603942 274.846L0.108709 182.624L0.108708 182.615L0 91.8866L130.661 0ZM131.419 9.20641L7.97198 96.0201L8.07574 182.624L7.97922 269.319L131.854 315.57L314.012 268.992L313.44 96.7932L131.419 9.20641Z" fill="white"/>
<path fill-rule="evenodd" clip-rule="evenodd" d="M127.647 319.886L127.056 4.75008L135.023 4.73514L135.614 319.871L127.647 319.886Z" fill="white"/>
<path fill-rule="evenodd" clip-rule="evenodd" d="M134.852 2.32547L321.274 269.805L314.738 274.36L128.316 6.8809L134.852 2.32547Z" fill="white"/>
<path fill-rule="evenodd" clip-rule="evenodd" d="M0.396484 270.368L127.988 2.88815L135.179 6.31828L7.58729 273.798L0.396484 270.368Z" fill="white"/>
<path fill-rule="evenodd" clip-rule="evenodd" d="M320.19 96.8451L134.413 322.299L128.264 317.232L314.042 91.7786L320.19 96.8451Z" fill="white"/>
<path fill-rule="evenodd" clip-rule="evenodd" d="M128.276 321.892L0.631348 96.1063L7.56679 92.1855L135.212 317.971L128.276 321.892Z" fill="white"/>
<path opacity="0.2" d="M319.938 273.45L135.242 312.562L225.057 52.5381L317.043 94.5509L319.938 273.45Z" fill="url(#paint0_linear_4030_4598)"/>
<path opacity="0.2" d="M4.9884 276.292L133.822 317.488L55.818 58.9449L1.48291 95.7526L4.9884 276.292Z" fill="url(#paint1_linear_4030_4598)"/>
<defs>
<linearGradient id="paint0_linear_4030_4598" x1="210.019" y1="334.657" x2="298.752" y2="90.8529" gradientUnits="userSpaceOnUse">
<stop stop-color="white"/>
<stop offset="1" stop-color="white" stop-opacity="0"/>
</linearGradient>
<linearGradient id="paint1_linear_4030_4598" x1="39.2532" y1="284.637" x2="110.751" y2="88.1972" gradientUnits="userSpaceOnUse">
<stop stop-color="white"/>
<stop offset="1" stop-color="white" stop-opacity="0"/>
</linearGradient>
</defs>
</svg>
