<svg width="29" height="24" viewBox="0 0 29 24" fill="none" xmlns="http://www.w3.org/2000/svg">
<path d="M10.8842 22.5209L11.423 15.7693L23.7684 4.77581C23.8702 4.65539 23.9382 4.51358 23.894 4.35264C23.5499 4.1917 23.2217 4.35602 22.9229 4.52596L7.67305 14.0136L0.771975 11.8955C-1.08657 10.8882 0.867053 10.115 1.87103 9.70532C10.1994 6.29856 18.7813 3.4624 27.1289 0.0984049C28.4102 -0.284251 29.0758 0.488939 28.9931 1.72694C27.3859 8.52134 26.2925 15.4654 24.6082 22.2396C24.2449 23.7038 23.7423 24.4984 22.1068 23.6565L15.4966 18.8598C15.4355 18.8598 15.1967 19.0579 15.1276 19.1142C14.0478 19.9954 13.0302 21.3392 11.9289 22.1799C11.6244 22.4129 11.2736 22.5322 10.8831 22.5187L10.8842 22.5209Z" fill="#00B2FF"/>
</svg>
